<svg width="61" height="61" viewBox="0 0 61 61" fill="none" xmlns="http://www.w3.org/2000/svg">
<path d="M30.8528 20.2934C30.8528 18.5477 30.4926 16.8191 29.7927 15.2062C29.0929 13.5934 28.0671 12.128 26.7739 10.8935C25.4807 9.65914 23.9455 8.67996 22.2558 8.0119C20.5662 7.34384 18.7553 7 16.9264 7C15.0976 7 13.2866 7.34384 11.597 8.0119C9.90738 8.67996 8.37214 9.65914 7.07895 10.8935C5.78577 12.128 4.75995 13.5934 4.06009 15.2062C3.36022 16.8191 3 18.5477 3 20.2934C3 23.819 4.46724 27.2003 7.07895 29.6932C9.69066 32.1862 13.2329 33.5868 16.9264 33.5868C20.6199 33.5868 24.1622 32.1862 26.7739 29.6932C29.3856 27.2003 30.8528 23.819 30.8528 20.2934ZM18.1925 21.5019C15.6629 21.5019 15.6629 21.5019 15.6629 21.5019C15.6629 21.5019 18.5282 21.5019 18.1925 21.5019H15.6629H9.32006C8.98429 21.5019 8.66226 21.3746 8.42484 21.1479C8.18741 20.9213 8.05402 20.6139 8.05402 20.2934C8.05402 19.9729 8.18741 19.6655 8.42484 19.4389C8.66226 19.2122 8.98429 19.0849 9.32006 19.0849H15.6604C15.6604 19.0849 17.8567 19.0849 18.1925 19.0849C18.5282 19.0849 18.5391 19.0849 18.5391 19.0849H18.1925H24.5302C24.866 19.0849 25.188 19.2122 25.4255 19.4389C25.6629 19.6655 25.7963 19.9729 25.7963 20.2934C25.7963 20.6139 25.6629 20.9213 25.4255 21.1479C25.188 21.3746 24.866 21.5019 24.5302 21.5019H18.1925ZM45.4123 15.4594H32.5924C32.1587 14.1827 31.5553 12.9643 30.7971 11.834H45.4123C47.5948 11.834 49.6879 12.6616 51.2312 14.1347C52.7745 15.6078 53.6415 17.6058 53.6415 19.6892V36.3156C53.6409 37.757 53.0407 39.1393 51.9729 40.1586L37.7401 53.7468C37.211 54.2518 36.583 54.6524 35.8918 54.9257C35.2006 55.199 34.4597 55.3396 33.7115 55.3396H16.2934C14.1109 55.3396 12.0177 54.512 10.4744 53.0389C8.93116 51.5658 8.06415 49.5678 8.06415 47.4844V33.5336C9.2365 34.2515 10.5127 34.8291 11.8623 35.2473V47.4844C11.8623 49.8192 13.8474 51.7142 16.2934 51.7142H33.3849V43.859C33.3848 41.8525 34.189 39.9221 35.6326 38.4637C37.0761 37.0053 39.0497 36.1295 41.1483 36.0159L41.6142 36.0038H49.8434V19.6892C49.8434 18.5674 49.3765 17.4915 48.5455 16.6983C47.7146 15.9051 46.5875 15.4594 45.4123 15.4594ZM47.1569 39.6292H41.6142C40.5017 39.6293 39.43 40.0288 38.6118 40.7484C37.7937 41.468 37.2891 42.455 37.1982 43.5133L37.183 43.859V49.1497L47.1569 39.6292Z" fill="#5914A3"/>
</svg>
